<?xml version="1.0" encoding="UTF-8"?>
<svg id="Laag_1" data-name="Laag 1" xmlns="http://www.w3.org/2000/svg" viewBox="0 0 512 512">
  <defs>
    <style>
      .cls-1 {
        fill: #df5c36;
      }

      .cls-2 {
        fill: #fff;
      }

      .cls-3 {
        fill: #2b535c;
      }
    </style>
  </defs>
  <path class="cls-3" d="M318.75,149.92v160.18c0,12.84,0,25.86.27,38.77h-37.56c-.79-4.23-1.54-11.52-1.78-14.74-6.81,11.11-18.96,18.01-40.03,18.01-35.67,0-58.37-28.65-58.37-72.65s24.13-74.96,64.07-74.96c20.3,0,31.2,7.16,34.33,13.48v-68.09h39.06ZM221.41,278.47c0,27.5,10.71,42.39,29.83,42.39,26.86,0,29.95-22.4,29.95-42.67,0-24.12-3.41-42.37-28.94-42.37-20.5,0-30.85,16.01-30.85,42.65Z"/>
  <circle class="cls-2" cx="302.65" cy="329.14" r="29.36"/>
  <circle class="cls-1" cx="306.35" cy="330.7" r="23.44"/>
</svg>