<?xml version="1.0" encoding="UTF-8"?>
<svg id="Laag_1" data-name="Laag 1" xmlns="http://www.w3.org/2000/svg" viewBox="82 188 390 135">
  <defs>
    <style>
      .cls-1 {
        fill: #df5c36;
      }

      .cls-2 {
        fill: #ffffff;
      }
    </style>
  </defs>
  <g>
    <path class="cls-2" d="M170.03,198.76v90.76c0,7.28,0,14.65.15,21.97h-21.28c-.44-2.4-.87-6.53-1.01-8.35-3.86,6.29-10.74,10.2-22.68,10.2-20.21,0-33.07-16.23-33.07-41.17s13.67-42.48,36.31-42.48c11.5,0,17.68,4.06,19.45,7.64v-38.58h22.13ZM114.87,271.6c0,15.58,6.07,24.02,16.9,24.02,15.22,0,16.97-12.69,16.97-24.18,0-13.67-1.93-24.01-16.4-24.01-11.62,0-17.48,9.07-17.48,24.17Z"/>
    <path class="cls-2" d="M256.16,271.37c0,24.19-14.47,41.98-39.8,41.98s-39.26-17.69-39.26-41.55,14.92-42.09,40.3-42.09c23.53,0,38.75,16.6,38.75,41.67ZM199.56,271.52c0,15.39,6.62,24.5,17.28,24.5s16.85-9.12,16.85-24.37c0-16.73-6.14-24.64-17.16-24.64-10.26,0-16.97,7.6-16.97,24.5Z"/>
    <path class="cls-2" d="M282.01,276.26c.02,10,5.03,19.77,16.05,19.77,9.21,0,11.85-3.7,13.95-8.53h22.15c-2.84,9.78-11.56,25.85-36.68,25.85s-37.75-19.69-37.75-40.66c0-25.07,12.87-42.98,38.54-42.98,27.45,0,36.79,19.86,36.79,39.81,0,2.71,0,4.46-.29,6.74h-52.75ZM312.88,262.66c-.15-9.31-3.87-17.14-14.66-17.14s-14.87,7.31-15.75,17.14h30.41Z"/>
    <path class="cls-2" d="M342.84,251.69c0-6.79,0-14.23-.15-20.14h21.43c.44,2.06.74,7.61.85,10.18,2.72-5.02,9.19-12.04,23.19-12.04,16.06,0,26.49,10.85,26.49,30.94v50.85h-22.13v-48.39c0-8.99-3-15.5-12.76-15.5s-14.78,5.23-14.78,19.34v44.55h-22.13v-59.8Z"/>
  </g>
  <circle class="cls-1" cx="444.97" cy="294.08" r="18.03"/>
</svg>
