<?xml version="1.0" encoding="UTF-8"?>
<svg id="Laag_1" data-name="Laag 1" xmlns="http://www.w3.org/2000/svg" viewBox="80 150 340 175">
  <defs>
    <style>
      .cls-1 {
        fill: #df5c36;
      }

      .cls-2 {
        fill: #8aacb1;
      }

      .cls-3 {
        fill: #2b535c;
      }
    </style>
  </defs>
  <g>
    <path class="cls-2" d="M256.86,304.05c.6,2.3,2.23,3.67,5.02,3.67,3.14,0,4.42-1.45,4.42-3.43s-.85-3-4.8-3.96c-4.56-1.09-5.69-2.47-5.69-4.8s1.84-4.7,5.83-4.7,5.9,2.44,6.18,4.95h-1.77c-.32-1.48-1.48-3.32-4.49-3.32s-3.96,1.52-3.96,2.93c0,1.62.85,2.44,4.35,3.29,4.98,1.2,6.22,2.83,6.22,5.48,0,3.21-2.61,5.19-6.32,5.19-4.03,0-6.29-2.12-6.78-5.3h1.8Z"/>
    <path class="cls-2" d="M270.45,308.93v-26.03h1.77v26.03h-1.77Z"/>
    <path class="cls-2" d="M276.21,282.89h1.77v3.43h-1.77v-3.43ZM276.21,291.27h1.77v17.66h-1.77v-17.66Z"/>
    <path class="cls-2" d="M281.97,295.82c0-1.52,0-3.18-.04-4.56h1.73c.04.6.11,2.12.07,3.14.74-1.77,2.37-3.57,5.3-3.57,2.47,0,4.42,1.24,5.12,3.5.88-1.84,2.65-3.5,5.76-3.5,2.72,0,5.55,1.55,5.55,6.46v11.62h-1.77v-11.41c0-2.37-.85-4.95-4.13-4.95s-4.98,2.76-4.98,6.18v10.17h-1.73v-11.37c0-2.58-.78-4.98-4.03-4.98-3.43,0-5.09,3.04-5.09,6.64v9.71h-1.77v-13.11Z"/>
    <path class="cls-2" d="M330.32,307.73c0,5.65-2.51,8.62-7.63,8.62-4.59,0-6.5-2.58-6.92-5.26h1.8c.64,2.44,2.65,3.6,5.19,3.6,4.59,0,5.86-2.97,5.86-7.45v-1.84c-.95,2.3-2.68,3.53-5.9,3.53-4.13,0-7.31-3.36-7.31-8.83,0-5.93,3.39-9.25,7.56-9.25,3.6,0,5.16,1.7,5.65,3.11.04-1.02.07-2.26.11-2.68h1.66c0,.64-.07,3.43-.07,5.12v11.34ZM317.29,300.03c0,4.2,2.23,7.24,5.62,7.24,4.42,0,5.76-2.93,5.76-7.52s-1.41-7.24-5.65-7.24-5.72,3.5-5.72,7.52Z"/>
    <path class="cls-2" d="M334.7,300.31c.04,4.56,2.33,7.38,5.72,7.38s4.45-1.87,5.09-3.32h1.8c-.74,2.33-2.61,4.98-6.96,4.98-5.37,0-7.45-4.63-7.45-9.11,0-5.05,2.51-9.4,7.67-9.4,5.44,0,7.17,4.7,7.17,8.02,0,.49,0,.99-.04,1.45h-13ZM345.89,298.75c-.04-3.5-1.94-6.25-5.4-6.25-3.64,0-5.3,2.54-5.69,6.25h11.09Z"/>
    <path class="cls-2" d="M364.05,282.89v20.95c0,1.7,0,3.32.04,5.09h-1.7c-.07-.42-.11-2.08-.11-2.97-.88,2.15-2.86,3.39-5.93,3.39-4.59,0-7.35-3.74-7.35-9.04s3-9.47,7.81-9.47c3.53,0,4.95,1.52,5.48,2.65v-10.6h1.77ZM350.87,300.24c0,4.84,2.51,7.45,5.55,7.45,4.66,0,5.93-3.21,5.93-8.02,0-4.56-1.09-7.17-5.62-7.17-3.5,0-5.86,2.79-5.86,7.74Z"/>
    <path class="cls-2" d="M379.91,305.57c0,1.55.14,2.79.25,3.36h-1.7c-.14-.42-.25-1.2-.32-2.72-.6,1.31-2.15,3.14-5.79,3.14-4.1,0-5.86-2.65-5.86-5.3,0-3.89,3-5.65,8.3-5.65h3.36v-1.8c0-1.77-.53-4.13-4.56-4.13-3.57,0-4.1,1.87-4.49,3.32h-1.77c.21-1.94,1.41-4.95,6.29-4.95,4.03,0,6.29,1.7,6.29,5.58v9.15ZM378.17,299.92h-3.46c-3.92,0-6.36,1.02-6.36,4.06,0,2.23,1.59,3.74,4.06,3.74,5.05,0,5.76-3.36,5.76-7.17v-.64Z"/>
    <path class="cls-2" d="M395.8,305.57c0,1.55.14,2.79.25,3.36h-1.7c-.14-.42-.25-1.2-.32-2.72-.6,1.31-2.15,3.14-5.79,3.14-4.1,0-5.86-2.65-5.86-5.3,0-3.89,3-5.65,8.3-5.65h3.36v-1.8c0-1.77-.53-4.13-4.56-4.13-3.57,0-4.1,1.87-4.49,3.32h-1.77c.21-1.94,1.41-4.95,6.29-4.95,4.03,0,6.29,1.7,6.29,5.58v9.15ZM394.07,299.92h-3.46c-3.92,0-6.36,1.02-6.36,4.06,0,2.23,1.59,3.74,4.06,3.74,5.05,0,5.76-3.36,5.76-7.17v-.64Z"/>
    <path class="cls-2" d="M399.82,295.72c0-1.55,0-3.04-.04-4.45h1.73c.07.57.11,2.86.07,3.36.78-1.8,2.23-3.78,5.86-3.78,3.14,0,5.93,1.77,5.93,6.64v11.45h-1.77v-11.16c0-3.14-1.31-5.19-4.38-5.19-4.2,0-5.65,3.5-5.65,7.35v9.01h-1.77v-13.21Z"/>
  </g>
  <g>
    <path class="cls-3" d="M169.43,159.92v90.76c0,7.28,0,14.65.15,21.97h-21.28c-.44-2.4-.87-6.53-1.01-8.35-3.86,6.29-10.74,10.2-22.68,10.2-20.21,0-33.07-16.23-33.07-41.17s13.67-42.48,36.31-42.48c11.5,0,17.68,4.06,19.45,7.64v-38.58h22.13ZM114.27,232.76c0,15.58,6.07,24.02,16.9,24.02,15.22,0,16.97-12.69,16.97-24.18,0-13.67-1.93-24.01-16.4-24.01-11.62,0-17.48,9.07-17.48,24.17Z"/>
    <path class="cls-3" d="M255.55,232.53c0,24.19-14.47,41.98-39.8,41.98s-39.26-17.69-39.26-41.55,14.92-42.09,40.3-42.09c23.53,0,38.75,16.61,38.75,41.67ZM198.96,232.68c0,15.39,6.62,24.5,17.28,24.5s16.85-9.12,16.85-24.37c0-16.73-6.14-24.64-17.16-24.64-10.26,0-16.97,7.6-16.97,24.5Z"/>
    <path class="cls-3" d="M281.4,237.42c.02,10,5.03,19.77,16.05,19.77,9.21,0,11.85-3.7,13.95-8.54h22.15c-2.84,9.79-11.56,25.85-36.68,25.85s-37.75-19.69-37.75-40.66c0-25.08,12.87-42.98,38.54-42.98,27.45,0,36.79,19.86,36.79,39.82,0,2.71,0,4.46-.29,6.74h-52.75ZM312.28,223.82c-.15-9.31-3.87-17.14-14.66-17.14s-14.87,7.31-15.75,17.14h30.41Z"/>
    <path class="cls-3" d="M342.23,212.85c0-6.79,0-14.23-.15-20.14h21.43c.44,2.06.74,7.62.85,10.18,2.72-5.02,9.19-12.04,23.19-12.04,16.06,0,26.49,10.85,26.49,30.94v50.85h-22.13v-48.39c0-8.99-3-15.5-12.76-15.5s-14.78,5.23-14.78,19.34v44.55h-22.13v-59.8Z"/>
  </g>
  <circle class="cls-1" cx="444.36" cy="255.24" r="18.03"/>
</svg>